# xmcd
#
# Track frame offsets:
#	150
#	13330
#	26705
#	46647
#	62012
#	76917
#	87622
#	98754
#
# Disc length: 1509 seconds
#
# Revision: 0
# Processed by: cddbd v1.5PL3 Copyright (c) Steve Scherf et al.
# Submitted via: dBpowerAMP V4.0
#
DISCID=5b05e308
DTITLE=Eric James - Work In Progress
DYEAR=1900
DGENRE=Country
TTITLE0=Fadin Fast
TTITLE1=Leavin' Line
TTITLE2=Lonely
TTITLE3=Old Shovel
TTITLE4=Honky Tonk Crazy
TTITLE5=Out The Door
TTITLE6=The Lone Ranger
TTITLE7=This Love In My Heart
EXTD=
EXTT0=
EXTT1=
EXTT2=
EXTT3=
EXTT4=
EXTT5=
EXTT6=
EXTT7=
PLAYORDER=
